<?xml version="1.0" standalone="no"?>
<!DOCTYPE svg PUBLIC "-//W3C//DTD SVG 20010904//EN"
 "http://www.w3.org/TR/2001/REC-SVG-20010904/DTD/svg10.dtd">
<svg version="1.0" xmlns="http://www.w3.org/2000/svg"
 width="512.000000pt" height="512.000000pt" viewBox="0 0 512.000000 512.000000"
 preserveAspectRatio="xMidYMid meet">

<g transform="translate(0.000000,512.000000) scale(0.100000,-0.100000)"
fill="#000000" stroke="none">
<path d="M652 5099 c-119 -59 -121 -233 -2 -296 40 -22 54 -23 227 -23 l183 0
0 -601 0 -601 -35 30 c-53 47 -115 80 -184 98 -122 31 -260 -9 -355 -103 -209
-208 -118 -555 169 -642 l55 -16 -41 -65 c-220 -347 -319 -642 -322 -955 -1
-132 2 -156 20 -197 41 -91 156 -133 246 -89 68 33 75 57 75 241 0 203 34 362
115 540 l25 55 4 -365 c5 -639 6 -638 -58 -1140 -35 -273 -42 -436 -21 -477
52 -99 187 -122 270 -44 44 40 48 54 57 189 13 174 32 342 40 342 4 0 13 -91
19 -202 20 -326 30 -360 115 -399 101 -46 214 0 236 94 8 37 1 163 -26 507
-18 214 -21 424 -16 1164 1 260 6 436 11 430 17 -18 59 -150 79 -249 11 -56
28 -177 37 -270 8 -94 18 -193 21 -222 6 -56 32 -104 77 -137 38 -28 142 -34
186 -12 74 39 84 101 56 373 -36 356 -98 595 -202 781 -80 144 -233 315 -315
354 -18 8 -62 30 -98 47 -36 17 -71 31 -79 31 -9 0 -11 5 -5 18 5 9 10 349 12
755 l2 737 428 0 428 0 824 -825 c454 -455 840 -835 858 -846 l32 -21 0 -795
0 -796 -277 -616 c-152 -339 -282 -634 -290 -656 -42 -116 57 -238 179 -222
43 6 98 39 118 71 7 12 71 149 141 306 l129 285 0 -255 c0 -140 5 -271 10
-290 11 -41 61 -94 103 -109 75 -29 166 6 204 79 22 42 23 50 23 339 l1 296
169 -337 c153 -302 174 -339 207 -360 56 -34 137 -32 186 5 48 36 70 81 71
137 0 40 -42 130 -317 689 l-317 644 0 1808 0 1809 -1722 0 -1723 0 -43 -21z
m3148 -934 c0 -338 -1 -615 -3 -615 -1 0 -279 277 -617 615 l-615 615 618 0
617 0 0 -615z"/>
</g>
</svg>
